<svg xmlns="http://www.w3.org/2000/svg" viewBox="0 0 100 100" width="64" height="64">
  <!-- Docker whale -->
  <path fill="#2496ed" d="M55 30h9v9h-9zM44 30h9v9h-9zM33 30h9v9h-9zM44 20h9v9h-9zM55 20h9v9h-9zM22 30h9v9h-9zM33 20h9v9h-9zM33 40h9v9h-9zM44 40h9v9h-9z"/>
  <path fill="#2496ed" d="M95 42c-2-1.5-6.6-2-10-1.5-.5-4-3-7.5-6-10l-2-1.5-1.5 2c-2 3-2.5 8-0.5 11-1 .5-3.5 1.5-6.5 1.5H7c-1.5 5 0 22 8 30.5C22 82 33 86 47 86c20 0 35-9 42-28 5 0 10-0.5 13-5l1-2-2.5-1.5-.5.5c1-1 0-4.5-5-8z"/>
</svg>
