<svg xmlns="http://www.w3.org/2000/svg" viewBox="0 0 100 100" width="64" height="64">
  <!-- Kubernetes helm wheel -->
  <path fill="#326ce5" d="M50 10c-22.1 0-40 17.9-40 40s17.9 40 40 40 40-17.9 40-40-17.9-40-40-40zm0 72c-17.7 0-32-14.3-32-32s14.3-32 32-32 32 14.3 32 32-14.3 32-32 32z"/>
  <path fill="#326ce5" d="M50 25c-13.8 0-25 11.2-25 25s11.2 25 25 25 25-11.2 25-25-11.2-25-25-25zm0 4l4.5 12.5H45.5L50 29zm-15 20l12.5-4.5v9L35 49zm0 2l12.5 4.5v-9L35 51zm15 20l-4.5-12.5h9L50 71zm-10.5-15L50 60.5V51.5l-10.5 4.5zm21 0L50 60.5V51.5l10.5 4.5zM65 51l-12.5-4.5v9L65 51zm0-2l-12.5 4.5v-9L65 49z"/>
  <circle fill="#326ce5" cx="50" cy="50" r="8"/>
</svg>
