<svg xmlns="http://www.w3.org/2000/svg" viewBox="0 0 100 100" width="64" height="64">
  <!-- Apple logo simplified -->
  <path fill="#333" d="M75.2 52.8c-.1-10.3 8.4-15.3 8.8-15.5-4.8-7-12.3-8-14.9-8.1-6.3-.7-12.4 3.8-15.6 3.8-3.2 0-8.2-3.7-13.4-3.6-6.9.1-13.3 4.1-16.8 10.3-7.2 12.5-1.8 31 5.2 41.2 3.4 5 7.5 10.6 12.9 10.4 5.2-.2 7.1-3.4 13.4-3.4 6.3 0 8 3.4 13.4 3.3 5.6-.1 9.1-5.1 12.5-10.1 3.9-5.8 5.5-11.4 5.6-11.7-.1-.1-10.8-4.2-11.1-16.6zM65 24.3c2.8-3.5 4.7-8.3 4.2-13.1-4.1.2-9 2.7-12 6.1-2.6 3.1-4.9 7.9-4.3 12.6 4.5.4 9.2-2.3 12.1-5.6z"/>
</svg>
