<svg xmlns="http://www.w3.org/2000/svg" viewBox="0 0 100 100" width="64" height="64">
  <!-- NVIDIA logo - eye mark + wordmark simplified -->
  <path fill="#76b900" d="M37.4 42.5c0-0.2 0.2-0.2 0.2-0.2 5.8-0.8 11 3.4 12.2 8.8v0.6c-3.4-4.4-8-6.8-12.4-6.8v-2.4zm0 5.4v2c3.6 0.2 7.4 3.4 8.6 6.8 0 0.2 0.2 0.2 0.2 0.4l2-1c0-0.2-0.2-0.4-0.2-0.6-1.8-4.2-5.8-7.4-10.6-7.6zm-3.4-11v2.6c0.4 0 1-0.2 1.4-0.2 9.8-0.6 17.2 8 17.8 16.6l2.4-0.4v-0.2c-0.4-10.4-9.2-19.2-19.6-18.6-0.6 0-1.4 0-2 0.2z"/>
  <path fill="#76b900" d="M34 37.5v31.2c11.2-0.4 19.8-9.6 19.8-20.2C53.4 42.3 50 37.7 34 37.5z"/>
  <path fill="#333" d="M23 41.5v28c0 0 6.2 6 16.4 6 10 0 18.8-6.2 22-15 0 0 4-9.2-0.4-18.6 0 0-4.2-8.2-15.6-10.2 0 0 5.2 2.4 7.6 8.4 0 0 3.2 7.8-1.2 15.8 0 0-4 8.2-13.6 9.6 0 0-6.4 0.8-11-2.6V41.5H23z"/>
  <rect fill="#76b900" x="14" y="72" width="72" height="4" rx="2"/>
  <text x="50" y="88" text-anchor="middle" fill="#76b900" font-family="Arial, sans-serif" font-weight="bold" font-size="14">NVIDIA</text>
</svg>
