<svg width="48" height="48" viewBox="0 0 48 48" xmlns="http://www.w3.org/2000/svg">
  <path d="M24 6l16 10v16L24 42 8 32V16L24 6z" fill="#7c3aed" opacity="0.1"/>
  <path d="M24 6l16 10v16L24 42 8 32V16L24 6z" fill="none" stroke="#7c3aed" stroke-width="2" stroke-linejoin="round"/>
  <path d="M24 6v36M8 16l16 8 16-8" stroke="#7c3aed" stroke-width="1.5" opacity="0.4"/>
  <circle cx="24" cy="24" r="6" fill="none" stroke="#7c3aed" stroke-width="2"/>
  <path d="M21 24l2 2 4-4" stroke="#7c3aed" stroke-width="2" stroke-linecap="round" stroke-linejoin="round"/>
  <circle cx="24" cy="6" r="2" fill="#7c3aed"/>
  <circle cx="8" cy="16" r="2" fill="#7c3aed"/>
  <circle cx="40" cy="16" r="2" fill="#7c3aed"/>
  <circle cx="24" cy="42" r="2" fill="#7c3aed"/>
  <circle cx="8" cy="32" r="2" fill="#7c3aed"/>
  <circle cx="40" cy="32" r="2" fill="#7c3aed"/>
</svg>
