<svg xmlns="http://www.w3.org/2000/svg" viewBox="0 0 335 335" width="32" height="32">
  <circle cx="168" cy="168" r="160" fill="#7c3aed"/>
  <path fill="#ffffff" d="
    M 168.44 102.37
    Q 182.48 102.34 196.58 102.35
    Q 215.61 102.37 222.92 104.06
    C 247.07 109.63 265.21 128.35 270.56 152.38
    Q 272.38 160.55 272.16 174.32
    Q 272.04 181.67 272.16 212.01
    C 272.27 240.60 251.26 269.12 222.75 274.62
    Q 218.71 275.40 208.70 275.43
    Q 173.55 275.56 168.89 275.57
    Q 164.24 275.58 129.09 275.64
    Q 119.08 275.66 115.04 274.90
    C 86.50 269.55 65.34 241.14 65.30 212.55
    Q 65.26 182.21 65.10 174.86
    Q 64.81 161.10 66.58 152.92
    C 71.81 128.86 89.85 110.04 113.97 104.35
    Q 121.27 102.62 140.30 102.50
    Q 154.40 102.41 168.44 102.37
    Z"/>
  <circle fill="#7c3aed" cx="121.44" cy="172.53" r="27"/>
  <circle fill="#7c3aed" cx="213.69" cy="172.56" r="27"/>
  <circle fill="#ffffff" cx="168.77" cy="36.13" r="17.47"/>
  <path fill="#ffffff" d="
    M 50.50 213.05
    A 0.04 0.04 0.0 0 1 50.46 213.09
    L 50.37 213.09
    A 13.92 6.95 89.9 0 1 43.40 199.19
    L 43.36 178.73
    A 13.92 6.95 89.9 0 1 50.29 164.79
    L 50.38 164.79
    A 0.04 0.04 0.0 0 1 50.42 164.83
    L 50.50 213.05
    Z"/>
  <path fill="#ffffff" d="
    M 287.14 165.68
    A 0.12 0.12 0.0 0 1 287.26 165.56
    L 287.28 165.56
    A 13.52 6.38 90.0 0 1 293.66 179.08
    L 293.66 198.92
    A 13.52 6.38 -90.0 0 1 287.28 212.44
    L 287.26 212.44
    A 0.12 0.12 0.0 0 1 287.14 212.32
    L 287.14 165.68
    Z"/>
  <path fill="#7c3aed" d="
    M 168.18 233.78
    C 177.29 233.79 187.30 230.98 193.52 224.38
    Q 197.01 220.66 198.39 220.17
    Q 202.50 218.71 206.14 221.64
    A 3.54 3.52 -87.7 0 1 206.92 222.49
    C 212.13 230.38 202.52 238.48 196.03 242.13
    C 187.51 246.91 177.86 249.08 168.16 249.07
    C 158.45 249.05 148.81 246.86 140.30 242.04
    C 133.82 238.38 124.24 230.25 129.47 222.37
    A 3.54 3.52 87.9 0 1 130.25 221.53
    Q 133.90 218.61 138.01 220.08
    Q 139.39 220.57 142.87 224.30
    C 149.07 230.92 159.07 233.77 168.18 233.78
    Z"/>
</svg>
