<?xml version="1.0" encoding="UTF-8" standalone="no"?>
<svg
   width="103.49696mm"
   height="101.21394mm"
   viewBox="0 0 391.16962 382.54086"
   version="1.1"
   id="svg3"
   sodipodi:docname="logo_icon_background.svg"
   inkscape:version="1.4 (e7c3feb1, 2024-10-09)"
   xmlns:inkscape="http://www.inkscape.org/namespaces/inkscape"
   xmlns:sodipodi="http://sodipodi.sourceforge.net/DTD/sodipodi-0.dtd"
   xmlns="http://www.w3.org/2000/svg"
   xmlns:svg="http://www.w3.org/2000/svg"
   xmlns:rdf="http://www.w3.org/1999/02/22-rdf-syntax-ns#"
   xmlns:cc="http://creativecommons.org/ns#"
   xmlns:dc="http://purl.org/dc/elements/1.1/">
  <defs
     id="defs3">
    <clipPath
       clipPathUnits="userSpaceOnUse"
       id="clipPath9">
      <path
         d="M 0,665.386 H 2260.762 V 0 H 0 Z"
         transform="translate(-497.66241,-323.86171)"
         id="path9" />
    </clipPath>
    <clipPath
       clipPathUnits="userSpaceOnUse"
       id="clipPath11">
      <path
         d="M 0,665.386 H 2260.762 V 0 H 0 Z"
         transform="translate(-489.23191,-371.07481)"
         id="path11" />
    </clipPath>
    <clipPath
       clipPathUnits="userSpaceOnUse"
       id="clipPath13">
      <path
         d="M 0,665.386 H 2260.762 V 0 H 0 Z"
         transform="translate(-410.59151,-396.98001)"
         id="path13" />
    </clipPath>
    <clipPath
       clipPathUnits="userSpaceOnUse"
       id="clipPath15">
      <path
         d="M 0,665.386 H 2260.762 V 0 H 0 Z"
         transform="translate(-496.80311,-396.98001)"
         id="path15" />
    </clipPath>
    <clipPath
       clipPathUnits="userSpaceOnUse"
       id="clipPath17">
      <path
         d="M 0,665.386 H 2260.762 V 0 H 0 Z"
         transform="translate(-317.32491,-416.19091)"
         id="path17" />
    </clipPath>
    <clipPath
       clipPathUnits="userSpaceOnUse"
       id="clipPath19">
      <path
         d="M 0,665.386 H 2260.762 V 0 H 0 Z"
         transform="translate(-567.67732,-416.19091)"
         id="path19" />
    </clipPath>
    <clipPath
       clipPathUnits="userSpaceOnUse"
       id="clipPath21">
      <path
         d="M 0,665.386 H 2260.762 V 0 H 0 Z"
         transform="translate(-387.16001,-328.94401)"
         id="path21" />
    </clipPath>
    <clipPath
       clipPathUnits="userSpaceOnUse"
       id="clipPath23">
      <path
         d="M 0,665.386 H 2260.762 V 0 H 0 Z"
         transform="translate(-460.60301,-503.43861)"
         id="path23" />
    </clipPath>
    <clipPath
       clipPathUnits="userSpaceOnUse"
       id="clipPath25">
      <path
         d="M 0,665.386 H 2260.762 V 0 H 0 Z"
         id="path25" />
    </clipPath>
  </defs>
  <sodipodi:namedview
     id="namedview3"
     pagecolor="#505050"
     bordercolor="#eeeeee"
     borderopacity="1"
     inkscape:showpageshadow="0"
     inkscape:pageopacity="0"
     inkscape:pagecheckerboard="0"
     inkscape:deskcolor="#505050"
     inkscape:zoom="1.7739897"
     inkscape:cx="154.45411"
     inkscape:cy="204.90536"
     inkscape:window-width="1728"
     inkscape:window-height="1056"
     inkscape:window-x="0"
     inkscape:window-y="33"
     inkscape:window-maximized="0"
     inkscape:current-layer="svg3"
     inkscape:document-units="mm" />
  <title
     id="title1">logo_icon</title>
  <g
     id="g3"
     transform="matrix(6.3101439,0,0,6.3101439,-3.7649726,-7.0044175e-4)">
    <path
       id="Shape copy"
       fill="#ffffff"
       d="m 30.33,2.39 c 0,0 -20.82,10.03 -20.82,10.03 -0.8,0.38 -1.38,1.11 -1.58,1.97 0,0 -5.14,22.52 -5.14,22.52 -0.2,0.86 0.01,1.76 0.56,2.45 0,0 14.41,18.05 14.41,18.05 0.55,0.7 1.39,1.1 2.28,1.1 0,0 23.11,0 23.11,0 0.88,0 1.72,-0.4 2.27,-1.1 0,0 14.44,-18.05 14.44,-18.05 0.55,-0.69 0.76,-1.59 0.56,-2.45 0,0 -5.17,-22.52 -5.17,-22.52 -0.19,-0.86 -0.77,-1.59 -1.57,-1.97 0,0 -20.83,-10.03 -20.83,-10.03 C 32.06,2 31.13,2 30.33,2.39 Z" />
    <path
       d="m 43.148235,60.623253 h -23.11256 c -1.528225,0.004 -2.974524,-0.689824 -3.92692,-1.883841 L 1.6940833,40.666667 C 0.7383328,39.473722 0.38111176,37.909631 0.72432551,36.420588 L 5.8724224,13.904412 c 0.3348181,-1.49102 1.3368452,-2.745655 2.7177163,-3.402843 L 29.41,0.50235316 c 1.377417,-0.66965621 2.986493,-0.66965621 4.36391,0 L 54.599758,10.51951 c 1.377473,0.661457 2.377978,1.914185 2.717716,3.402843 l 5.142111,22.516177 c 0.343214,1.489043 -0.01401,3.053133 -0.969758,4.246078 L 47.075156,58.739412 c -0.952397,1.194017 -2.398696,1.887836 -3.926921,1.883841 z M 30.331869,2.3921571 9.506021,12.421275 C 8.7072636,12.804614 8.1274772,13.531402 7.9316611,14.394804 L 2.7895504,36.905 c -0.1991623,0.86217 0.0082,1.767975 0.562699,2.457941 L 17.760934,57.411765 c 0.54919,0.695178 1.38829,1.098882 2.274741,1.094448 h 23.11256 c 0.886451,0.0044 1.725551,-0.39927 2.274741,-1.094448 L 59.861592,39.362941 C 60.414811,38.672354 60.620039,37.766252 60.418305,36.905 L 55.252249,14.394804 c -0.195816,-0.863402 -0.775602,-1.59019 -1.57436,-1.973529 L 32.852042,2.3921571 c -0.795036,-0.3885801 -1.725138,-0.3885801 -2.520173,0 z"
       id="Shape"
       style="fill:#7c3aed;fill-opacity:1;fill-rule:nonzero;stroke:none;stroke-width:1" />
    <g
       id="g2"
       transform="matrix(0.46507474,0,0,0.46507474,-16.471548,-34.36466)">
      <path
         id="path8"
         d="m 0,0 h -110.323 c -26.297,0 -47.615,21.318 -47.615,47.615 v 35.782 c 0,26.297 21.318,47.615 47.615,47.615 H 0 c 26.297,0 47.615,-21.318 47.615,-47.615 V 47.615 C 47.615,21.318 26.297,0 0,0 Z"
         style="fill:none;stroke:#7c3aed;stroke-width:29;stroke-linecap:butt;stroke-linejoin:miter;stroke-miterlimit:10;stroke-dasharray:none;stroke-opacity:1"
         transform="matrix(0.35277776,0,0,-0.35277776,122.86344,165.25867)"
         clip-path="url(#clipPath9)" />
      <path
         id="path10"
         d="m 0,0 h -93.43 c -12.656,0 -22.916,10.26 -22.916,22.916 v 5.979 c 0,12.656 10.26,22.915 22.916,22.915 H 0 c 12.656,0 22.916,-10.259 22.916,-22.915 V 22.916 C 22.916,10.26 12.656,0 0,0"
         style="fill:#7c3aed;fill-opacity:1;fill-rule:nonzero;stroke:none"
         transform="matrix(0.35277776,0,0,-0.35277776,119.88935,148.60294)"
         clip-path="url(#clipPath11)" />
      <path
         id="path12"
         d="m 0,0 c 0,-6.175 -5.006,-11.181 -11.181,-11.181 -6.174,0 -11.18,5.006 -11.18,11.181 0,6.175 5.006,11.181 11.18,11.181 C -5.006,11.181 0,6.175 0,0"
         style="fill:#ffffff;fill-opacity:1;fill-rule:nonzero;stroke:none"
         transform="matrix(0.35277776,0,0,-0.35277776,92.146759,139.46416)"
         clip-path="url(#clipPath13)" />
      <path
         id="path14"
         d="m 0,0 c 0,-6.175 -5.006,-11.181 -11.181,-11.181 -6.174,0 -11.18,5.006 -11.18,11.181 0,6.175 5.006,11.181 11.18,11.181 C -5.006,11.181 0,6.175 0,0"
         style="fill:#ffffff;fill-opacity:1;fill-rule:nonzero;stroke:none"
         transform="matrix(0.35277776,0,0,-0.35277776,122.5603,139.46416)"
         clip-path="url(#clipPath15)" />
      <path
         id="path16"
         d="m 0,0 h -2.874 c -11.2,0 -20.279,-9.079 -20.279,-20.278 v -12.561 c 0,-11.2 9.079,-20.278 20.279,-20.278 H 0 Z"
         style="fill:#7c3aed;fill-opacity:1;fill-rule:nonzero;stroke:none"
         transform="matrix(0.35277776,0,0,-0.35277776,59.244378,132.68698)"
         clip-path="url(#clipPath17)" />
      <path
         id="path18"
         d="m 0,0 h 2.874 c 11.2,0 20.279,-9.079 20.279,-20.278 v -12.561 c 0,-11.2 -9.079,-20.278 -20.279,-20.278 H 0 Z"
         style="fill:#7c3aed;fill-opacity:1;fill-rule:nonzero;stroke:none"
         transform="matrix(0.35277776,0,0,-0.35277776,147.56314,132.68698)"
         clip-path="url(#clipPath19)" />
      <path
         id="path20"
         d="M 0,0 -16.941,-49.694 51.388,-7.341 Z"
         style="fill:#7c3aed;fill-opacity:1;fill-rule:nonzero;stroke:#7c3aed;stroke-width:10;stroke-linecap:round;stroke-linejoin:round;stroke-miterlimit:10;stroke-dasharray:none;stroke-opacity:1"
         transform="matrix(0.35277776,0,0,-0.35277776,83.880647,163.46575)"
         clip-path="url(#clipPath21)" />
      <path
         id="path22"
         d="m 0,0 c 0,-9.997 -8.104,-18.102 -18.102,-18.102 -9.997,0 -18.102,8.105 -18.102,18.102 0,9.997 8.105,18.102 18.102,18.102 C -8.104,18.102 0,9.997 0,0"
         style="fill:#7c3aed;fill-opacity:1;fill-rule:nonzero;stroke:none"
         transform="matrix(0.35277776,0,0,-0.35277776,109.7897,101.90793)"
         clip-path="url(#clipPath23)" />
      <path
         id="path24"
         d="m 448.901,453.744 h -12.8 v 36.896 h 12.8 z"
         style="fill:#7c3aed;fill-opacity:1;fill-rule:nonzero;stroke:none"
         transform="matrix(0.35277776,0,0,-0.35277776,-52.700795,279.50988)"
         clip-path="url(#clipPath25)" />
    </g>
  </g>
  <metadata
     id="metadata3">
    <rdf:RDF>
      <cc:Work
         rdf:about="">
        <dc:title>logo_icon</dc:title>
      </cc:Work>
    </rdf:RDF>
  </metadata>
</svg>
